<mxfile host="app.diagrams.net" modified="2024-01-14T18:13:17.082Z" agent="Mozilla/5.0 (Windows NT 10.0; Win64; x64) AppleWebKit/537.36 (KHTML, like Gecko) Chrome/120.0.0.0 Safari/537.36" etag="j4iJI26qTwpjLwPQv34G" version="22.1.18" type="device">
  <diagram name="Trang-1" id="Hv0e7ztBrr9cdC-deEKX">
    <mxGraphModel dx="1960" dy="2292" grid="1" gridSize="10" guides="1" tooltips="1" connect="1" arrows="1" fold="1" page="1" pageScale="1" pageWidth="827" pageHeight="1169" math="0" shadow="0">
      <root>
        <mxCell id="0" />
        <mxCell id="1" parent="0" />
        <mxCell id="EFobRQ2AVmHJE45BsGNO-1" value="ItemSet" style="html=1;overflow=block;blockSpacing=1;swimlane;childLayout=stackLayout;horizontal=1;horizontalStack=0;resizeParent=1;resizeParentMax=0;resizeLast=0;collapsible=0;fontStyle=0;marginBottom=0;swimlaneFillColor=#ffffff;startSize=25;whiteSpace=wrap;fontSize=25;fontColor=#3a414a;align=center;spacing=0;strokeColor=#3a414a;strokeOpacity=100;rounded=1;absoluteArcSize=1;arcSize=9;strokeWidth=3.8;" parent="1" vertex="1">
          <mxGeometry x="640" y="-410" width="300" height="430" as="geometry" />
        </mxCell>
        <mxCell id="EFobRQ2AVmHJE45BsGNO-2" value="+ item: Set&amp;lt;Item&amp;gt;&#xa;+ muy: double" style="part=1;html=1;resizeHeight=0;strokeColor=none;fillColor=none;align=left;verticalAlign=middle;spacingLeft=4;spacingRight=4;overflow=hidden;rotatable=0;points=[[0,0.5],[1,0.5]];portConstraint=eastwest;swimlaneFillColor=#ffffff;strokeOpacity=100;whiteSpace=wrap;fontSize=16.7;fontColor=#3a414a;" parent="EFobRQ2AVmHJE45BsGNO-1" vertex="1">
          <mxGeometry y="25" width="300" height="52" as="geometry" />
        </mxCell>
        <mxCell id="EFobRQ2AVmHJE45BsGNO-3" value="" style="line;strokeWidth=1;fillColor=none;align=left;verticalAlign=middle;spacingTop=-1;spacingLeft=3;spacingRight=3;rotatable=0;labelPosition=right;points=[];portConstraint=eastwest;" parent="EFobRQ2AVmHJE45BsGNO-1" vertex="1">
          <mxGeometry y="77" width="300" height="8" as="geometry" />
        </mxCell>
        <mxCell id="EFobRQ2AVmHJE45BsGNO-4" value="+ ItemSet()&#xa;+ ItemSet(IItemSet)&#xa;+ addItem(Item): void&#xa;+ contains(Item): boolean&#xa;+ size(): int&#xa;+ isEmpty(): boolean&#xa;+ print(): void&#xa;+ toString(): String&#xa;+ getItems(): Set&amp;lt;Item&amp;gt;&#xa;+ setIItems(Set&amp;lt;Item&amp;gt;): void&#xa;+ getMuy(): double&#xa;+ setMuy(double): void&#xa;+ removeAll(IItemSet): boolean&#xa;+ equals(Object): boolean&#xa;+ hashCode(): int" style="part=1;html=1;resizeHeight=0;strokeColor=none;fillColor=none;align=left;verticalAlign=middle;spacingLeft=4;spacingRight=4;overflow=hidden;rotatable=0;points=[[0,0.5],[1,0.5]];portConstraint=eastwest;swimlaneFillColor=#ffffff;strokeOpacity=100;whiteSpace=wrap;fontSize=16.7;fontColor=#3a414a;" parent="EFobRQ2AVmHJE45BsGNO-1" vertex="1">
          <mxGeometry y="85" width="300" height="345" as="geometry" />
        </mxCell>
        <mxCell id="EFobRQ2AVmHJE45BsGNO-5" value="UncertainDatabase" style="html=1;overflow=block;blockSpacing=1;swimlane;childLayout=stackLayout;horizontal=1;horizontalStack=0;resizeParent=1;resizeParentMax=0;resizeLast=0;collapsible=0;fontStyle=0;marginBottom=0;swimlaneFillColor=#ffffff;startSize=25;whiteSpace=wrap;fontSize=25;fontColor=#3a414a;align=center;spacing=0;strokeColor=#3a414a;strokeOpacity=100;rounded=1;absoluteArcSize=1;arcSize=9;strokeWidth=3.8;" parent="1" vertex="1">
          <mxGeometry x="914" y="177" width="480" height="570" as="geometry" />
        </mxCell>
        <mxCell id="EFobRQ2AVmHJE45BsGNO-6" value="+ fullyTransactions: List&amp;lt;IItemSet&amp;gt;&#xa;+ partlyTransaction: List&amp;lt;IItemSet&amp;gt;&#xa;+ transactions: List&amp;lt;IItemSet&amp;gt;&#xa;+ allItems: Set&amp;lt;Item&amp;gt;&#xa;+ w: Map&amp;lt;Integer, Double&amp;gt;&#xa;+ lines: int&#xa;+ n: int" style="part=1;html=1;resizeHeight=0;strokeColor=none;fillColor=none;align=left;verticalAlign=middle;spacingLeft=4;spacingRight=4;overflow=hidden;rotatable=0;points=[[0,0.5],[1,0.5]];portConstraint=eastwest;swimlaneFillColor=#ffffff;strokeOpacity=100;whiteSpace=wrap;fontSize=16.7;fontColor=#3a414a;" parent="EFobRQ2AVmHJE45BsGNO-5" vertex="1">
          <mxGeometry y="25" width="480" height="155" as="geometry" />
        </mxCell>
        <mxCell id="EFobRQ2AVmHJE45BsGNO-7" value="" style="line;strokeWidth=1;fillColor=none;align=left;verticalAlign=middle;spacingTop=-1;spacingLeft=3;spacingRight=3;rotatable=0;labelPosition=right;points=[];portConstraint=eastwest;" parent="EFobRQ2AVmHJE45BsGNO-5" vertex="1">
          <mxGeometry y="180" width="480" height="20" as="geometry" />
        </mxCell>
        <mxCell id="EFobRQ2AVmHJE45BsGNO-8" value="&lt;div style=&quot;display: flex; justify-content: center; align-items: baseline; font-size: 0px; line-height: 1.25; margin-top: -2px;&quot;&gt;&lt;span&gt;&lt;span style=&quot;font-size:16.7px;color:#3a414a;&quot;&gt;&lt;span style=&quot;font-size:16.7px;color:#3a414a;&quot;&gt;+ UncertainDatabase()&lt;br&gt;+ UncertainDatabase(int)&lt;br&gt;+ loadData(String): void&lt;br&gt;+ loadUnData(String): void&lt;br&gt;+ &lt;/span&gt;&lt;span style=&quot;font-size:16.7px;color:#3a414a;text-decoration: underline;&quot;&gt;processTransaction(String, List&amp;lt;IItemSet&amp;gt;, List&amp;lt;Item&amp;gt;): &lt;/span&gt;&lt;span style=&quot;font-size:16.7px;color:#3a414a;&quot;&gt; &lt;br&gt;+ &lt;/span&gt;&lt;span style=&quot;font-size:16.7px;color:#3a414a;text-decoration: underline;&quot;&gt;processUnTransaction(String, List&amp;lt;IItemSet&amp;gt;, List&amp;lt;Item&amp;gt;): &lt;br&gt;&lt;/span&gt;&lt;span style=&quot;font-size:16.7px;color:#3a414a;&quot;&gt;+ &lt;/span&gt;&lt;span style=&quot;font-size:16.7px;color:#3a414a;text-decoration: underline;&quot;&gt;createUnDB(String, List&amp;lt;IItemSet&amp;gt;)&lt;/span&gt;&lt;span style=&quot;font-size:16.7px;color:#3a414a;&quot;&gt;&lt;br&gt;+ size(); int&lt;br&gt;+ printDatabase(): void&lt;br&gt;+ &lt;/span&gt;&lt;span style=&quot;font-size:16.7px;color:#3a414a;text-decoration: underline;&quot;&gt;createWeight(Set&amp;lt;IItemSet&amp;gt;, String):  Map&amp;lt;Integer, Double&amp;gt;&lt;br&gt;&lt;/span&gt;&lt;span style=&quot;font-size:16.7px;color:#3a414a;&quot;&gt;+ &lt;/span&gt;&lt;span style=&quot;font-size:16.7px;color:#3a414a;text-decoration: underline;&quot;&gt;loadWeight(String): Map&amp;lt;Integer, Double&amp;gt;&lt;/span&gt;&lt;br&gt;&lt;/span&gt;&lt;span style=&quot;font-size:16.7px;color:#3a414a;&quot;&gt;+ &lt;/span&gt;&lt;span style=&quot;font-size:16.7px;color:#3a414a;text-decoration: underline;&quot;&gt;generateProb(): double&lt;br&gt;&lt;/span&gt;&lt;span style=&quot;font-size:16.7px;color:#3a414a;&quot;&gt;+ getW(): Map&amp;lt;Integer, Double&amp;gt;&lt;br&gt;+ getAllItems(): Set&amp;lt;Item&amp;gt;&lt;br&gt;+ converFullyDB(): void&lt;br&gt;+ changeFully(): void&lt;br&gt;+ changeParly(): void&lt;/span&gt;&lt;/span&gt;&lt;/div&gt;" style="part=1;html=1;resizeHeight=0;strokeColor=none;fillColor=none;align=left;verticalAlign=middle;spacingLeft=4;spacingRight=4;overflow=hidden;rotatable=0;points=[[0,0.5],[1,0.5]];portConstraint=eastwest;swimlaneFillColor=#ffffff;strokeOpacity=100;whiteSpace=wrap;fontSize=16.7;fontColor=#3a414a;fontStyle=4;" parent="EFobRQ2AVmHJE45BsGNO-5" vertex="1">
          <mxGeometry y="200" width="480" height="370" as="geometry" />
        </mxCell>
        <mxCell id="EFobRQ2AVmHJE45BsGNO-9" value="Item" style="html=1;overflow=block;blockSpacing=1;swimlane;childLayout=stackLayout;horizontal=1;horizontalStack=0;resizeParent=1;resizeParentMax=0;resizeLast=0;collapsible=0;fontStyle=0;marginBottom=0;swimlaneFillColor=#ffffff;startSize=25;whiteSpace=wrap;fontSize=25;fontColor=#3a414a;align=center;spacing=0;strokeColor=#3a414a;strokeOpacity=100;rounded=1;absoluteArcSize=1;arcSize=9;strokeWidth=3.8;" parent="1" vertex="1">
          <mxGeometry x="260" y="-350" width="270" height="276.25" as="geometry" />
        </mxCell>
        <mxCell id="EFobRQ2AVmHJE45BsGNO-10" value="+ item: int&#xa;+ probability: double" style="part=1;html=1;resizeHeight=0;strokeColor=none;fillColor=none;align=left;verticalAlign=middle;spacingLeft=4;spacingRight=4;overflow=hidden;rotatable=0;points=[[0,0.5],[1,0.5]];portConstraint=eastwest;swimlaneFillColor=#ffffff;strokeOpacity=100;whiteSpace=wrap;fontSize=16.7;fontColor=#3a414a;" parent="EFobRQ2AVmHJE45BsGNO-9" vertex="1">
          <mxGeometry y="25" width="270" height="117" as="geometry" />
        </mxCell>
        <mxCell id="EFobRQ2AVmHJE45BsGNO-11" value="" style="line;strokeWidth=1;fillColor=none;align=left;verticalAlign=middle;spacingTop=-1;spacingLeft=3;spacingRight=3;rotatable=0;labelPosition=right;points=[];portConstraint=eastwest;" parent="EFobRQ2AVmHJE45BsGNO-9" vertex="1">
          <mxGeometry y="142" width="270" height="8" as="geometry" />
        </mxCell>
        <mxCell id="EFobRQ2AVmHJE45BsGNO-12" value="+ getItem: int&#xa;+ getProbability: double&#xa;+ setProbability(double): void&#xa;+ equals(Object): boolean&#xa;+ hashCode(): int&#xa;+ toString(): String" style="part=1;html=1;resizeHeight=0;strokeColor=none;fillColor=none;align=left;verticalAlign=middle;spacingLeft=4;spacingRight=4;overflow=hidden;rotatable=0;points=[[0,0.5],[1,0.5]];portConstraint=eastwest;swimlaneFillColor=#ffffff;strokeOpacity=100;whiteSpace=wrap;fontSize=16.7;fontColor=#3a414a;" parent="EFobRQ2AVmHJE45BsGNO-9" vertex="1">
          <mxGeometry y="150" width="270" height="126.25" as="geometry" />
        </mxCell>
        <mxCell id="EFobRQ2AVmHJE45BsGNO-13" value="WPFI_Algorithm" style="html=1;overflow=block;blockSpacing=1;swimlane;childLayout=stackLayout;horizontal=1;horizontalStack=0;resizeParent=1;resizeParentMax=0;resizeLast=0;collapsible=0;fontStyle=0;marginBottom=0;swimlaneFillColor=#ffffff;startSize=25;whiteSpace=wrap;fontSize=25;fontColor=#3a414a;align=center;spacing=0;strokeColor=#3a414a;strokeOpacity=100;rounded=1;absoluteArcSize=1;arcSize=0;strokeWidth=3.8;" parent="1" vertex="1">
          <mxGeometry x="284" y="109" width="560" height="820" as="geometry" />
        </mxCell>
        <mxCell id="EFobRQ2AVmHJE45BsGNO-14" value="+ mu_1: Map&amp;lt;Item, Double&amp;gt;" style="part=1;html=1;resizeHeight=0;strokeColor=none;fillColor=none;align=left;verticalAlign=middle;spacingLeft=4;spacingRight=4;overflow=hidden;rotatable=0;points=[[0,0.5],[1,0.5]];portConstraint=eastwest;swimlaneFillColor=#ffffff;strokeOpacity=100;whiteSpace=wrap;fontSize=16.7;fontColor=#3a414a;" parent="EFobRQ2AVmHJE45BsGNO-13" vertex="1">
          <mxGeometry y="25" width="560" height="75" as="geometry" />
        </mxCell>
        <mxCell id="EFobRQ2AVmHJE45BsGNO-15" value="" style="line;strokeWidth=1;fillColor=none;align=left;verticalAlign=middle;spacingTop=-1;spacingLeft=3;spacingRight=3;rotatable=0;labelPosition=right;points=[];portConstraint=eastwest;" parent="EFobRQ2AVmHJE45BsGNO-13" vertex="1">
          <mxGeometry y="100" width="560" height="8" as="geometry" />
        </mxCell>
        <mxCell id="EFobRQ2AVmHJE45BsGNO-16" value="&lt;div style=&quot;display: flex; justify-content: center; align-items: baseline; font-size: 0px; line-height: 1.25; margin-top: -2px;&quot;&gt;&lt;span&gt;&lt;span style=&quot;font-size:16.7px;color:#3a414a;&quot;&gt;&lt;span style=&quot;font-size:16.7px;color:#3a414a;&quot;&gt;+ main(): void&lt;br&gt;+ WPFI_Algorithm()&lt;br&gt;+ runAlgorithm(UncertainDatabase, int, double, double): Set&amp;lt;IItemSet&amp;gt;&lt;br&gt;&lt;br&gt;&lt;/span&gt;&lt;span style=&quot;font-size:16.7px;color:#3a414a;text-decoration: underline;&quot;&gt;+ useAlgorithm2(Map&amp;lt;Integer, Set&amp;lt;IItemSet&amp;gt;&amp;gt;, UncertainDatabase, int, double)&lt;/span&gt;&lt;span style=&quot;font-size:16.7px;color:#3a414a;&quot;&gt;&lt;br&gt;&lt;br&gt;&lt;/span&gt;&lt;span style=&quot;font-size:16.7px;color:#3a414a;text-decoration: underline;&quot;&gt;+ useAlgorithm2(Map&amp;lt;Integer, Set&amp;lt;IItemSet&amp;gt;&amp;gt;, UncertainDatabase, int, double, double, Map&amp;lt;Item, Double&amp;gt;)&lt;/span&gt;&lt;span style=&quot;font-size:16.7px;color:#3a414a;&quot;&gt;&lt;br&gt;&lt;br&gt;&lt;br&gt;&lt;/span&gt;&lt;span style=&quot;font-size:16.7px;color:#3a414a;text-decoration: underline;&quot;&gt;+ Algorithm2(Set&amp;lt;IItemSet&amp;gt;, Set&amp;lt;Item&amp;gt;, Map&amp;lt;Integer, Double&amp;gt;, int, int, double): Set&amp;lt;IItemSet&amp;gt;&lt;br&gt;&lt;br&gt;+ Algorithm3(Set&amp;lt;IItemSet&amp;gt;, Set&amp;lt;Item&amp;gt;, Map&amp;lt;Integer, Double&amp;gt;, int, int, double, double, Map&amp;lt;Item, Double&amp;gt;): Set&amp;lt;IItemSet&amp;gt;&lt;br&gt;&lt;br&gt;+ get_All_I0(Set&amp;lt;IItemSet&amp;gt;): void&lt;br&gt;+ calculateWeight(IItemSet, Map&amp;lt;Integer, Double&amp;gt;): double&lt;br&gt;&lt;br&gt;+ Scan_Find_Size_1_wPFI(UncertainDatabase, Map&amp;lt;Integer, Double&amp;gt;, int, double, Map&amp;lt;Item, Double&amp;gt;): Set&amp;lt;IItemSet&amp;gt;&lt;br&gt;&lt;br&gt;+ Scan_Find_Size_k_wPFI(Set&amp;lt;IItemSet&amp;gt;, UncertainDatabase, Map&amp;lt;Integer, Double&amp;gt;, int, double, Map&amp;lt;Item, Double&amp;gt;): Set&amp;lt;IItemSet&amp;gt;&lt;br&gt;&lt;br&gt;+ calculate_prob(Set&amp;lt;Item&amp;gt;, IItemSet): double&lt;br&gt;+ Pr(UncertainDataBase, IItemSet, int, double): double[]&lt;br&gt;+ argmin(IItemSet, Map&amp;lt;Integer, Double&amp;gt;): Item&lt;br&gt;+ factorial(int): int&lt;br&gt;+ F(int, double): double&lt;br&gt;+ findMuHat(int, double, double): double&lt;br&gt;+ min(Double, Double): double&lt;/span&gt;&lt;/span&gt;&lt;/span&gt;&lt;/div&gt;" style="part=1;html=1;resizeHeight=0;strokeColor=none;fillColor=none;align=left;verticalAlign=middle;spacingLeft=4;spacingRight=4;overflow=hidden;rotatable=0;points=[[0,0.5],[1,0.5]];portConstraint=eastwest;swimlaneFillColor=#ffffff;strokeOpacity=100;whiteSpace=wrap;fontSize=16.7;fontColor=#3a414a;fontStyle=4;" parent="EFobRQ2AVmHJE45BsGNO-13" vertex="1">
          <mxGeometry y="108" width="560" height="712" as="geometry" />
        </mxCell>
        <mxCell id="EFobRQ2AVmHJE45BsGNO-17" value="&amp;lt;&amp;lt;interface&amp;gt;&amp;gt;&lt;br&gt;IItemSet" style="html=1;overflow=block;blockSpacing=1;swimlane;childLayout=stackLayout;horizontal=1;horizontalStack=0;resizeParent=1;resizeParentMax=0;resizeLast=0;collapsible=0;marginBottom=0;swimlaneFillColor=#ffffff;startSize=25;whiteSpace=wrap;fontSize=25.2;fontStyle=1;align=center;spacing=0;strokeColor=#3a414a;strokeOpacity=100;rounded=1;absoluteArcSize=1;arcSize=9;strokeWidth=3.8;" parent="1" vertex="1">
          <mxGeometry x="1124" y="-415.75" width="270" height="435.75" as="geometry" />
        </mxCell>
        <mxCell id="EFobRQ2AVmHJE45BsGNO-18" value="addItem(Item): void&#xa;getItems(): Set&amp;lt;Item&amp;gt;&#xa;contains(Item): boolean&#xa;size(): int&#xa;setItems(Set&amp;lt;Item&amp;gt;): void&#xa;isEmpty(): boolean&#xa;print(): void&#xa;setMuy(double): void&#xa;getMuy(): double&#xa;removeAll(IItemSet): boolean" style="part=1;html=1;resizeHeight=0;strokeColor=none;fillColor=none;align=left;verticalAlign=middle;spacingLeft=4;spacingRight=4;overflow=hidden;rotatable=0;points=[[0,0.5],[1,0.5]];portConstraint=eastwest;swimlaneFillColor=#ffffff;strokeOpacity=100;whiteSpace=wrap;fontSize=16.7;fontColor=#3a414a;" parent="EFobRQ2AVmHJE45BsGNO-17" vertex="1">
          <mxGeometry y="25" width="270" height="410.75" as="geometry" />
        </mxCell>
        <mxCell id="EFobRQ2AVmHJE45BsGNO-19" value="" style="html=1;jettySize=18;whiteSpace=wrap;fontSize=13;strokeColor=#3a414a;strokeOpacity=100;strokeWidth=3.8;rounded=1;arcSize=12;edgeStyle=orthogonalEdgeStyle;startArrow=none;endArrow=block;endFill=0;endSize=12;exitX=-0.007;exitY=0.5;exitPerimeter=0;entryX=1.007;entryY=0.514;entryPerimeter=0;lucidId=4dw5Z8OQDCyN;" parent="1" source="EFobRQ2AVmHJE45BsGNO-17" target="EFobRQ2AVmHJE45BsGNO-1" edge="1">
          <mxGeometry width="100" height="100" relative="1" as="geometry">
            <Array as="points" />
          </mxGeometry>
        </mxCell>
        <mxCell id="EFobRQ2AVmHJE45BsGNO-20" value="" style="html=1;jettySize=18;whiteSpace=wrap;fontSize=13;strokeColor=#3a414a;strokeOpacity=100;strokeWidth=3.8;rounded=1;arcSize=12;edgeStyle=orthogonalEdgeStyle;startArrow=none;endArrow=none;exitX=1.007;exitY=0.5;exitPerimeter=0;entryX=-0.007;entryY=0.397;entryPerimeter=0;lucidId=4dw5Ni6_6u0f;" parent="1" source="EFobRQ2AVmHJE45BsGNO-9" target="EFobRQ2AVmHJE45BsGNO-1" edge="1">
          <mxGeometry width="100" height="100" relative="1" as="geometry">
            <Array as="points" />
          </mxGeometry>
        </mxCell>
        <mxCell id="EFobRQ2AVmHJE45BsGNO-21" value="" style="html=1;jettySize=18;whiteSpace=wrap;fontSize=13;strokeColor=#3a414a;strokeOpacity=100;strokeWidth=3.8;rounded=1;arcSize=12;edgeStyle=orthogonalEdgeStyle;startArrow=none;endArrow=none;exitX=0.273;exitY=1.004;exitPerimeter=0;entryX=0.5;entryY=-0.002;entryPerimeter=0;lucidId=4dw5RCdXFPc-;" parent="1" source="EFobRQ2AVmHJE45BsGNO-1" target="EFobRQ2AVmHJE45BsGNO-13" edge="1">
          <mxGeometry width="100" height="100" relative="1" as="geometry">
            <Array as="points" />
          </mxGeometry>
        </mxCell>
        <mxCell id="EFobRQ2AVmHJE45BsGNO-22" value="" style="html=1;jettySize=18;whiteSpace=wrap;fontSize=13;strokeColor=#3a414a;strokeOpacity=100;strokeWidth=3.8;rounded=1;arcSize=12;edgeStyle=orthogonalEdgeStyle;startArrow=none;endArrow=none;exitX=0.727;exitY=1.004;exitPerimeter=0;entryX=0.5;entryY=-0.003;entryPerimeter=0;lucidId=4dw5zNUh3Hg-;" parent="1" source="EFobRQ2AVmHJE45BsGNO-1" target="EFobRQ2AVmHJE45BsGNO-5" edge="1">
          <mxGeometry width="100" height="100" relative="1" as="geometry">
            <Array as="points" />
          </mxGeometry>
        </mxCell>
      </root>
    </mxGraphModel>
  </diagram>
</mxfile>
